<mxfile host="65bd71144e">
    <diagram id="Y5TOqPM1Gu3y-zE47UrM" name="Page-1">
        <mxGraphModel dx="606" dy="478" grid="1" gridSize="10" guides="1" tooltips="1" connect="1" arrows="1" fold="1" page="1" pageScale="1" pageWidth="850" pageHeight="1100" math="0" shadow="0">
            <root>
                <mxCell id="0"/>
                <mxCell id="1" parent="0"/>
                <mxCell id="8" style="edgeStyle=none;html=1;exitX=1;exitY=0.5;exitDx=0;exitDy=0;entryX=-0.04;entryY=0.609;entryDx=0;entryDy=0;entryPerimeter=0;" edge="1" parent="1" source="3" target="4">
                    <mxGeometry relative="1" as="geometry"/>
                </mxCell>
                <mxCell id="9" style="edgeStyle=none;html=1;exitX=1;exitY=0.5;exitDx=0;exitDy=0;entryX=-0.04;entryY=0.543;entryDx=0;entryDy=0;entryPerimeter=0;" edge="1" parent="1" source="3" target="5">
                    <mxGeometry relative="1" as="geometry"/>
                </mxCell>
                <mxCell id="10" style="edgeStyle=none;html=1;exitX=1;exitY=0.5;exitDx=0;exitDy=0;entryX=-0.019;entryY=0.63;entryDx=0;entryDy=0;entryPerimeter=0;" edge="1" parent="1" source="3" target="6">
                    <mxGeometry relative="1" as="geometry"/>
                </mxCell>
                <mxCell id="11" style="edgeStyle=none;html=1;exitX=1;exitY=0.5;exitDx=0;exitDy=0;entryX=-0.02;entryY=0.261;entryDx=0;entryDy=0;entryPerimeter=0;" edge="1" parent="1" source="3" target="7">
                    <mxGeometry relative="1" as="geometry"/>
                </mxCell>
                <mxCell id="3" value="Azure AppÂ &#10;Configuration" style="shape=image;verticalLabelPosition=bottom;labelBackgroundColor=none;verticalAlign=top;aspect=fixed;imageAspect=0;image=data:image/png,iVBORw0KGgoAAAANSUhEUgAAAS8AAAE7CAYAAACMmQdVAAAACXBIWXMAAA7EAAAOxAGVKw4bAAA+6klEQVR4Xu1dCXxN19YXRCSIkEGEmMWQIMZWoiWhFR4lnhpeW2Mp2qKDdBB8JX1aXofwSvFoqKFoxdASLaGIKWaJIYaQSEQSRCKJzN9aN/eSRJJ7zrn7jHed98ujsoe1/mvf/117nbXXtqhCj1kiEBWX0SkiJq3P0Zg03/3R93vn5BXZABCWagDDydbyfrcWdc97udn9MbCzw2ZXe+sENchNMrJFwILtcDSakhHYcy7ltd3nUoeHnUt5NS2rwBFkLdL/4DrAn6pKlr8C2Yo8XGtdGNWz4U++HvV/b+1c64YKdSCRBSBA5CUANDV1CY+6/2roqeTRQFgDgLDs9QSlRpIyBnsBErCbs3X0kG4NNvv3cNoMRHbdWCf6vXoRIPJSr+0qlDz+fnbT4L1xn+85k+KXnJ7XWKUelSmWQY+ysFsL25OTfBsvHdajwSZTBqO+ykSAyEuZdhEkFXhZfiv235kZHv2gLwxQXdAg2utU6GpvdXts70bLxr3ssqKujWWG9lQ0T42IvFRu95y8ghqbIpImrAqPnxmTlN1G5eqIKr6VpcXjUd4NQ2b0b/I1BPnviDoZDS46AkReokMszgRIWiF/J05dEnb7M9gaNhBnFk2OqttSDvR0+C1oZKuPgcTiNamlGShF5KVCI2+KuDs+KPTGl0BaDVUovpJEzpvSt3Hw+wOafO1ka5WqJMFIFuMIEHkZx0gxLSDVYWjQthtfwvawvWKEUr8gRXY21VLe82u6CIhsqZVltVz1q2QeGhB5qcDO15Iy2wRsiFlx5GpabxWIq1oRIfk1IdC/5ezR3g3XqlYJMxKcyEvBxsa41o/w9nDxrthAyICvo2BRtSRaEaRYHFsyru14yBOL0ZJiWtOFyEuhFj1981GP6SGX18AW0V2hImpaLNhK3pv/eusA8MLWaVpRFStH5KUw46G3FbTt5kLwuN4F0awUJp65iVPk615/z8pJ7f8F+WGPzE15petL5KUgC0Fsy23yqugtUfGZnRQkltmLArGwuKXj2k329bDfa/ZgKAgAIi+FGAPSH8bO2nj1e4ht2SlEJBKjNAIFY/u4rPzy9VYz6Y2kMpYGkZfMdniUlVc3cMv17385mjQWRCF7yGwPY9P3amN3MGSqx1DaRhpDSvzf04dFfIwrnAEOUDceFXw+jILyMhpBwNRYuSJkWgd/eBt5TUB36sIIASIvRkDyHebI1Ye9xi+/uAXK1FCWPF/wFNAe3kbe/Wlqh5G92tQ7rABxzFIELdZ1UrwhIb41ZtSS8zuIuBRvqgoFRNuBDXeCLd9Srxbqlpw8L4nth8d7gsPiAmBaKlkjMfYiTZc/a1CzLwJeax4k0vg0bAUIEHlJuDQgDeKX0MjkERSYlxB0aaZCApsPBLZAmuloFkSAto0SrYOPN15dBsQ1kohLIsClnab64t9vzVu0M3aOtNOa92xEXhLYHxb1vLUHE9+RYCqaQj4EqgGBzSUCk84ARF4iYx1yMGEyLOrZ5OWKDLQyhicPTEI7UMxLRLC3nbw38p3/XQqBKWqKOA0NrTwEKAYmgU2IvEQCGS7D6DcG8rjguE89kaagYZWNQN6SsW0nQFWK9coWU73SEXmJYDu4jdrD7+vTh4i4RABXRUPChR8Pd3zU+dWuLeqeUpHYqhGVYl6MTQWVIVr5f3t2LxEXY2BVOByugTHLLm6DY2CNVCi+4kUm8mJoIlikriODz++G7GsXhsPSUCpGAC5JcZ286tI2qNNGtdkY25HIixGgWB0CDln/EX8/pzWjIWkYjSBw6mZ6j/dDrlBdfMb2JPJiBOi45VG/QXWIDoyGo2E0hgAmKAeH3f5EY2rJqg6RFwP4YVEGwM0+fRkMRUNoGAEo7/0lVBPpo2EVJVWNyMtEuOGijBfgdh9MQqWHEDCGQDW4VCUE7ykw1pB+bxwBIi/jGFXYAuNck1ZFb4C3SrYmDENdzQgBiIk2XbzrFp2BZGBzIi8TQJweciUEFmNLE4agrmaIAJRE+gyvtjND1ZmqTOQlEE68MGP3udShArtTN/NGoNrHG66ugO2jpXnDYJr2RF4C8EtOz3EMCr1BxecEYEddihGA6+08g/fEfU54CEeAyEsAdgu23fwakg8bC+hKXQiBpwgs2Xv7YzhK1pEgEYYAkRdP3PBVN1xTNoZnN2pOCDyHALzoqb0g9OYigkYYAkRePHDDGMUnG67+AF2q8ehGTQmBChEIj37Qf8+5lNcIIv4IEHnxwAxiFJ9BFn17Hl2oKSFgFIFFu2L/bbQRNXgOASIvjosCg/QQo8Bbf+ghBJgiAMF7d/C+hjId1AwGI/LiaOSl4HVBjKIWx+bUjBDghcDszdeCKXWCF2R0exAXuMDrcvrpUMIULm2pDSEgBAFIdm4S8nfiNCF9zbUPeV4cLA9e1yfgdVlzaEpNCAHBCCwJu/05nXvkDh+RlxGs9F7XZO6QUktCQBgCkDvoRN4Xd+yIvIxgRbEu7ouJWpqOwC/H7k4wfRTzGIHIqxI74xtGiHVhHIIuKjGPz4PsWsKbxw6QCN1bdkFUIACRVyVGCj2Z/C+IdVVXgR1JRA0hsO5Q4lQNqSOaKkRelUC7Yn/8B/Brwki05UcDl4fA7nMpgzHWSuhUjgB9MCvAB5IGh8Dra7qyij5BkiMA3r7NpqNJ4yWfWGUTEnlVYDB464OuO8W6VLagtSLuyn3xM7Wii1h6EHmVgyyUKekEB2YxaEoHsMVaeTRupQhA2oRzeNT9VwimihEw62A01KCvczH+cdfo+Mcd79x/0izqzmPPqPiMLj5Bp/CChJq0cAgBORHYfSF1OMz/l5wyKHlus9oW4bXr+y8++MfRa2k+EVCXC5MCSwTki2ibqOSlan6yudpb3Tmz0MvV/DTnprGmyQvztPRk5Qtk9RLe3EIExW1hUCtlIHAgsJunR5M655UhjbKk0Ny2Ec+G/XE21X/HqeRR7h8fHUxxK2UtOJKGHwJwyQtuHYm8yoFNM+QFWck+m48ljfeYFTEwLavAnt8SodaEgDIROHDpgR9IRvc8lmMeVW8bsf4RpjRAMulHWFJEmcuPpCIETEKgMPo/Xg2cbK1STRpFg51V6XnhTdUr9t35oMtnxyZB0N1Fg3YhlQgBAwIWELcdAP/xM0FSGgFVkRcG4LHKQ7fPj70JW0NHMiYhYAYIWMDb8X5EXs9bWhXkhZ7W0rC4TyAA/ymooOqtrhl82EhFxgicufmoJ+MhNTGc4skr5GDCFK+5J+bQ9lAT642UEIAA3FjVGr7AbevaWKYL6K7ZLoo9HoSXu/osOHl+1saY5URcml1/pBhHBOAkiCfHpmbTTHGeF5YCCdx8Pdj/m3MjwAqKJVezWSGkqCIQgCNsnUGQQ4oQRiFCKIq84CBqf5/5kf8DT6uxQvAhMQgBRSBwOjbdGwQJVoQwChFCEeSFWfGzt17/buSSC3i9GHlbClkcJIZyEIiOz6BtYxlzyE5ep28+6u67IDIEgpLtlbNUSBJCQFkI6IP2tSFo/1hZksknjaxezop98e8N+ebsfiIu+RYAzaweBK4nZbmpR1rxJZWFvHCb+H7I5Z8Ct1xfCiVv64ivJs1ACKgfgeT0XDpNUsKMkm8bMeF01JILu45cTXtJ/cuJNCAEpEMgLTPfQbrZlD+TpOR1LSmz9cCvTofCNtFd+dCQhISAshCIv/+khbIkklcaycgLL9IE4toMZxIbyKsyzU4IqBKBoozsfDtVSi6S0JKQF+ZvjVpy/leIb9UWSQ8alhDQOgIW9yjmVcrGogfskbjGLL+4lYhL658t0k9sBFLSc53FnkNN44vqeemJizwuNa0IklWxCCQ/olu0SxpHNM9LT1xbyONS7GeBBFMZApAqYQc3uQ/GF18qE10UcUWpjUUelyi2okEJAbyeLxd+rBCKXm3s/m7Z0OZyayebS95udgfhlqGL5gQRc/KCbwU3eKv4N7xVpP25Oa0k0lUuBJ7eN+pka3nPu029fT7t64f1amsX7mpvnSiXUFLMy5S8MAHVZ0HkGbgMg/JRpLAezUEIVIKAm7P11RFeDdeM9nJeo8ULPJiRFx75gcz5vyBz/mVaUYQAIaAoBAp83ev/ObKn89phPRpsVpRkJgjDjLw+3nj1h7UHE6eZIAt1JQQIAZERsLOp9miSr+t34/q4/KB2b4wJeWF1CDhkvQRwZzKeyPaj4QkBs0fAytIia/zLjZZP7tf4e4iN3VEjICaTTVRcRke/r08foeoQajQ/yUwIVKkyCmJiAYObzVMbiZlEXnhjtd9XpyOj4jM70SIgBAgB9SKAntiUvq7fzRrcbL6VZTVMx1D8Y1KS6uJdt+YRcSnexiQgIWAUAdg52QSHxc2GW+jjIRH2NaMdFNBAsOeFV5PBDT9/gg6WCtCDRCAECAF2CBTC28mwoJGtZrR2rnWd3bBsRxJEXpgW0XPuicuUz8XWGDQaIaAkBODN5MP5r7f+YLR3w7VKkssgi6BtI9z08z0RlxLNSTIRAuwQgFMy9aavvfLT2GUXt2ECOruR2YzE2/OCt4udfIJOnYbpq7ERgUYhBAgBpSMAR4/il45rN9HXw/4vpcjK2/OaA/crEnEpxXwkByEgDQJwEbQr3Ku6M+RgwtvSzGh8Fl7kBW8hhsDxHx/jw1ILQoAQ0CACNWdtjFk2Z/O1RUrQjfO2UR+kvwaxriZKEJxkIAQIAdkQKBro6RC6clL70XLmhHH2vEL+TpxKxCXbYqGJCQElIWCx+1zqMExQlzOQz8nzSk7PccTkNUhk0xVBo4cQIAQIAUTAw7XW2e0fdfapa2P5SGpEOHlem44mTSDikto0NB8hoHwE4IRN56HfnP1bDg/MKHlhrGvlvvgPlQ8jSUgIEAJyIIBHBIHADkpNYEbJC2Nd8JrUSQ5QaE5CgBBQBwJAYJ5QjPRPdHakktgoeS0Juz1bKmFoHkKAEFAvAqdupvd4P+RKiFQaVEpemNcFXpejVMLQPIQAIaBuBEIjk0cEbbsxXwotKiWvRbti/08KIWgOQoAQ0AwC1aC0TsC2k/dGiK1RheSFF1viPlZsAWh8QoAQ0BwCVtPXXl5++uajbmJqViF5bT6aNFHMiWlsQoAQ0C4CkFpVf9Kq6K0QwBctN7RC8toWeW+kdqElzQgBQkBsBOBETrOPN8QsF2uecskLq6TixGJNSuMSAoSAeSDwy9Gkt8Kj7vcXQ9tyyWv76eRRYkxGYxIChIDZIVD9/ZDLIWIksD5HXphktuPkPSIvs1tjpDAhIA4CkG7lDPe6fst69OfIK/JmujeUf1VcyVfWitN4hAAhIB0CsH18E+94ZTnjc+R19GqaL8sJaCxCgBAgBACBGu+vvfwzSySeI69j19L6sJyAxiIECAFCABGAvNGOkLw6mhUapcgLgmq2kSInlrESnMYhBAgB9SEwZ8u1b1kd3i5FXkdj0vpAcllN9UFCEhMChIAaEIDgfQOoVDOFhaylyesqbRlZgEpjEAKEQIUIWEClmrksvK9S5HUk5iHdDESrjhAgBERFALwve6wTaOokpcjrWlJWO1MHpP6EACFACBhDYMX++A+MtTH2+6fkhVUkqE69Mbjo94QAIcACAbyJDOsFmjLWU/K6npTVHgYqNGUw6ksIEAKEAEcELKBeYBDHtuU2e0peMUlZbaFFkSmDUV9CQK0I4MJn/aNWLKSSG/K+PHDHJ3S+p+QVHf+4CwxSTehA1I8QUCsCxd/YRVXwElOWP2rFQ0q5oW7gBKHzlYx5oedFDyFgdghYAHtZ6GiL7VNEGxmjgELdQMHlokuQV1YLozNRA0JAiwgge4n0iDeySAJLPCwE7ptC/cCXhUyrIy88FgRvGq2FDEB9CAH1I8De60JMxPDm1I/1cxpYbD6WNF6IXjrySs/Ot9VhTQ8hYG4IiO4aiT6B2i1WNexcyj+FKKEjr+RHuc7wh9ELaIVMQH0IAUUjIOKWkbwvbpaH+oF1hNT60hFWdl6hDbdpqBUhoDUExN9wFIlMkFqwSERMGu+jiQbPq6EWACAdCAFeCEi1o5NqHl7KK6tx2PnUoXwl0pFXTl4hBev5Ikft1Y+ARB6RLnBPBFbpeoE6gl35VprQkVf8/SeN1L8SSQNCgC8C4m8ZDRLR1rFy20C2gw3cn/ECHwvqyKuuTfUMPp2oLSGgegQk9oQobcLoiqkKp3w8jbYq0UBHXo62NZL5dKK2hIDqEZBoy1gKpyKJGVNdRrK4lpzlwUdkHXk51a2RyKcTtSUE1I+AdFvGp1jJMKWa7BQdpztfzfnRkVeDujXuwh/0tcAZNmqoagRkW+kW9CGrZOFcT8p047Ouij0v2xr34A/6XuCDHLVVLwJybBn1aCmdvmTjdcAHk1WT03McuS4sfcDeMt3K0uIJ107UjhCoDAE5PwDcLCPn97Qy6UtXywxicoiMnNUwYu5mteFmwxJHgsD7SuHaidoRAhUioCsvg49CKUwBYlkoKHBfkrQsLIotV5yXJgtQFnBU0YXrp+vpecYGda2SuHaidoRAuQjgen/q1BgoTJYPQcUGknHLaBBKEYiAEAZPy0BapUBDIpNBUEiY53xU8Sl5tXK2uUwfSUJAMAKliOvZKIb8JvygyPFheF4fObeMxdKUSxaCgefZUU9a+CVjVA4Z+AsS5ptx1egpeXk0rn0WOtEFHFyRo3bPEKiAuEpCpPug6HYjMkZUZPAkKlomOjKX8DFsDzmRVgm5dFQvoai5+dyPKj4lL3fX2uckxJKm0goCHIirLIk9jYlJ7YwpYMtowMKo18NwfeDXha42vz6mxXtoCZ3Ve+m5nItEPCWvDq46z4tqevG2rBl34ElcpZEq9sR0795E9kJ0joPu/yT8FHJYFmJ7XwYfl8XRJBn95QqRfEpWdW0sH7k5W8dwwJyaEALFZMCEC3TBF93reXE+ILoNEyNZ2Rpe5wgxJu5ibYv3eSxI66mnqPuakWT/yHmSUp5WK+daV9iah0bTJALMiOsZOvhBexrcN+FDYojtPPNqno2rPFsUE3exYwj/M+GlRvEn3nB9G5NvlefgKrYPZ24RBLdr/Zq3uHYsRV5dWtge49qR2pkpAiIQV1kkS76h5PJRMWwLS8Z2BMd3ZDKrjmL1LzVKkZkReUqSljTuJXhgjL3Fkipa1aiaydUEpcirQ/EbR3oIgfIRkIC4Sk6MH2bjCa/F3kZx/Ewcj0OO5fCUzPQelc7jKcPkhjwtaUjrGQpoF7EIzKmO7qgip6cUeXm3sTsAx4SyOPWkRuaFgMTEVRrcElsrnVui32LpGmmHsCpeULp3hc9U1Xs+cnqXOgJjHwUrsqtVPZXrB6sUeVlZVsv1dqt3mGtnamcmCMhKXCW+8Q2+FXpkQl/7a8FkCtG9OJrIZWPPGXSLOtbVH3Ft/VxqhK97/T3QmZJVuSKo9XYKIS6tw6xe/dhuId0a2lzlisVz5DWws8NvXDtTO40jQMSlcQOzUY+VF2xnUy3dydaKc4GI58jL1d76DuV7sTGq+kdhuiVQPxykgagIQKoWr/PV5WbU+7rb49aRHnNHQB+UNXcYSP/KEWCUvFrg3qT2GT5Yl0te/T0dtvMZhNpqFwEFHQfULsgq14xVikprJ5tLfKAol7y6t7CNcLK1xLr29Jg7AuR9mfsKqFR/Rl4XzmHRmmdZrnLJC1ImCkZ7NVwDAxaQ5QgB8r5oDVSEACuvC8av6tGEX2WbCqtIjO3tsgwGpIgtrdunB6cJCkKgJAIss+w9XGudhzeN9/kgXCF5wVvHxIGeDrv4DEZttYsAw29Y7YJkZpqxSpFA2Pq62+/mC1+l9btGeTmv5TsgtdcuAiy/abWLknloxnot9HGvv5cvcpWS1wBPxx0QuE/gOyi11ygCCjmWolF0VaUWS68LzlMXwEtC3hVtjFZOndzPdQmgSseFVLW0xBG2uHYehUHFQVc9o7JeA7Bl3IXnqvkiYJS8Rns5rwZmzOY7MLXXKALkfWnUsNzVYul1oWPk074+73gXSmuUvPANwPiXGy3HL13u6lFLrSJQXEuTloJW7WtML9ZeFzhGmf49nDYZm7e83xslL+z08eBm8yH2dUfIBNRHewjQm0ft2ZSLRrpKtYw974Gejr/D/RmPucxftg0n8oLBM6b7Nf0PunhCJqE+2kOAvC/t2dSYRmIkK4/qKTyjgRN5oVLjIGmV3jwaM6/5/J68L/OxNWqq+7Ji7HUBn6T4etjzTpEwIM+ZvOBtQL7e+zIvq5G2FSJA3pf5LA4RvK4iOIK4yhQEOZOXwfuCNP5zpkxIfbWDAHlf2rFlZZqI4XVhCGokZDKYgiAv8kLva45/y09hwnxTJqW+2kGA9dsn7SCjHU1E8LqqwNHDHa2da900BSVe5IUT4R4Vjg39bMqk1Fc7CLB++6QdZLShiUheV5VZg5rNNxUh3uSFEwaNaDWDUidMhV47/cn70o4ty2oigtdVNLaPyzKPJnXOm4qaIPLC1Iml49pNwH2rqQJQfw0gQAULNWDE51XQfSkxfsMISakZAYOazWMBmCDy0m8f/4Lt408shKAx1I2A7kpUSrpXtxHLk54xceEUcFpnNZza4XyxbGWgmnTd8KOsPFuvuSeik9PzGmvPcqQRIUAIsEQAvK7cMwt7NuZzvVll8wv2vHBQ2D6mw/ZxIvw1j6WSNJb6ECDHS302k1jiIshUmMWKuFB2k8hLv338c4ZfEzw6RI8ZI8D42nczRlI5qrN8EQP5oWffKS6vxewxmbxQksBhLT/3FVAJkZkWNJDsCJDnJbsJ2AtgUlCplDgFS8fqdmhMH2biYfzLZ0Hkyfj7OW2YSkiDEQIKQaCFtUXs8M71toI4hWdiH3ffdze3bwnRkL/x84QJ3NUVIrIixJjSt3HwgpGtZ7IWhhl5oWDXkjJbAYGdyskrqstaUBpPuQjg9kJLyao96lc/M/wFh43d2jv8XaeW5cPaENt1qF8rpTwL5OblWybee+yKv7t8M63z4QupvqsuZEzTtzUQmnKNZ0wyE9MlXO2tbh6b/0I7IZVSjYnGlLxwsj3nUgaPWRb1G/zV0tjk9HtCQCkI9GtY4+/B3R23dG5nf7hdS/uLpsiVkZlT+/L1B55nrz7wWhORMv5mdlFrGK+aKWPK2VcoA2NO146POvfr2qLuSTHkZ05eKOSinbFzF/9+a66aDSYG2FocU+1eF5DWwYARrT7v7N6A9wUQXOwJRGaz68DtN2fsTFjBpb0S2+iKEOp2xLyeIjiJM5N1kL6kBLwl4io+ENg8ILBAaE/7f66gUTvJEICt4elZ/s3m9XnB9Q8pJk19kGn/275bEwP3JX8F84n2uRNDFyHkBQnsIZBGNV4MeQxjigqinsDQA2PyVlNMIGhs/gio1Osq/N/IJuNe9W6yybqmpeTVUW7dSWv5/eaYLzZczXyDP+Iy9uCxd3Rztr4cPqe7pxhxLkk8L8MkQGD/p/fAVLvnl3HJKHpqtZEXvC28FjK9wz9NjWmZapTsJ3kWK3+9MjvoUCp+sasiNszV+7KzqXZ396ddX4JyNzdMxclYf1E9rzIENoc8MGPmUM/veXwRK0Ip/2bWu+ZP8pjs7Fg7SRECgRA79t8Y/fbmuA1q20ZWhB8E6B/8Mr3TsF5t6v0tBcaSkBcqErTtxr+Dw+JmwV8pBiaFZUWfQz309X63uks+eMN9Vp1aVrwvNhUbxrPR916YsvLyangj6S72XCaPX3naRPbm6R2HQr2/P02eh+MAkpEXyrNiX/z0wC3XF8Nfa3CUj5oRAiYhAMQVPHdyl5kmDSJy54tXUzr7fhN1RuRpTB6+sjDBkrFtx472brjO5El4DCBpIB1fm66b5jEc3UseMlJThSGglos3YKu4AzyuAIXB95w4Hdo4nt06sdUA+EWBkmXFROQiqH1U5ihYUeCwFp9ITVyIk6TkhRMO8HTcFfZJ1z5UiVXJy/R52XDBGg7qCsj5kVxZCM7HYIxLiVvF8sCAlI2wRQOcP0CYJQeLx4QWRcXWRwoDQXM/GtTs2xl+TRfxGIJZU0m3jSWlTk7PcRwZfD4sKj6zCzNtaCCmCBR/ijBBER/ZloogncI/8ugKHo3it2JllVsccj5o0dEHswUpLU+nPKgYETX2pUbLB3Zx+A1K3ki2q5J1RebkFVhNXnVpy+5zqYNV9+mQZ6GIPqsuDA+BWd2fIlTSFF0BYNtl/2w88fX+rVVZ5Rcy8mv2+/zYOQjgq6XAAdbywzQo3S6uVxu7/UO6Om327+G0Cer9PRbT3rKSl0GxTRF3x8/aePVbONBtJ6ayNHbFCBhIi3XNcqkxx1yuff/u2RG2i0+knpvVfJBC8QakUKxnNZ4M42DsrhCuN9vu18lh18DODtvx3gvWciiCvFApqEjRenrIlfWnbqb3YK0kjVcBAsBYuuRDdXpY5SlVsH2KW3/vLo32q9nmkMRadcLCk3+WKbmjRpV0kQd4QZcz0NNxGxDZzn90dghllXmvGPIyWCY47PYni3fFBoIXVluN1lKHzPptocriWMawhUPWezd94e1nrJ0afh9xJsF36I8xqibhcnAuBCJ74t+9wUbwynbiyztTbKE48kJlTt981H16yOX1MUnZbqYoR32fIYCvuPGiOg15WWXNWwReVz/wusK1YvfR8yL+Au+rn1b0KaEHXploAUeJHvp5Ou4Y97LLCiibc4KvnookL1QCgvk1ftx/58P/ht3+OC2rwJ6vYtRej4CJxeTUgiNUiTgRuqBnzxqW1RWdasAHz31H44aMDrmxnU8fFbbNB2+sCI4VvQrHig7ykV/yPC+uwuG+GPJHvoqY/0JbKCP7Hdd+5t5Ol49VMlVIO/Gsykxb+EavBmu1RFyorGdb+8NmsJ6rQojIMj71SUu+uiqWvAyK4AWVUP/6w6Pze7SBfTLWXqJbuiuxsu4CWI3Fsjgs6qodWtcTpVonh7lFawKlpx/AKYFtok2gjIENHMR7F6h48jLgCyU2YtZO6zAo9CPPVyApLloZuJMUSkAAL8Zo1dTukhJkYS2Dfy/njTpnWvsPbx1VV+EB9sUYkPU4cvVh73WHEt8NjUx+Xft2JQ0rQaAQbvTZCIUFs7WIUofW9Y9XqRLL2ytRIRa8yUs1nldZY2DNoJWT3EecWfhiE7xaCd5cME+CU+ECMEeRi7q3qx+hVcUbN7RNwMRbrepXQi/eBK1a8jIo7WpvHY93wkUt9nZY/C+3d+GqpbtmYGhS8RkCVe3tat7TMiCdGtSkMEk5BlbdtrGiRarP2l0Gv1+G2fqhJ5Pf2nHq3mjIFWul5YVNulWxgLsV07SMQ2sX68tVbmUP1bKOQnTTDHmVVB6C++hmY33wuXgRLhDZOCCyEUBkeH8ePRpDwK6OdJUM5ICukYN1nBzzKn1OTZJXGSK7Dv+NV7AFApG5hUc9GHQ6Nt07Oj6jE5AZ79wSpRvUHOWzsqqeo2W969nWSNWyfnrdeMe8NE9eZYgsBv77W/1PlUdZebVP30zvBYfBXwJC8zoT+6gHZPPblFkoeELeAGxxHbbiH95gV7AA+b5lKSmLYUjDvxlkU30sk+uHFYLZt7X6ptGAgX1dK03H9PR68v0cmPdlGPp6Q2EAHv48feBsZY/svELr6PjHnR9l5de/fi+rTUp6bsOYu5nuyel59bl+sGRohySWCT814cccvpiKIJh9gfehOBkMY8qU1jWri1oXyxTZ5OxrDgucN75wSNSQrS3JFU68BaykQ/z97MZdPjt+1UzIyyL0VjYWstT0A+SFX0j0lEHAbLYXZmR5vAW67NZX0+rn5xdo+kLjh1AyXdMGFKgckZdA4KibchAoKCjS9A7i9t1MSvcpZ7kReSnnM0iSCEQgOzcfY3yafWLvZiF58Q5oaxYQvWJEXtqzMKu3oKpBJvtJfi3VCCtA0NO3HmNpdKqmQjEvAatHXV3Mjbxy7yQ9bq4uE3GXNicnv8b+hCevQg9Nx/W4I/KsJXleQlBTdh9zI6/q32yLnadskwiX7m5qZmPhvbXdk8hL2/Y1B+2qgmfySmZWriYvbNl9NBFLPuEbZK0/vGN6RF7aWxKGRWAOC95gvfzrcWnttGZKTAGZ91fSV6CXpt+mot2sLKvyzmUj8tLYiodFkOPmbJ1gZjGSqqt+vz1DY6askvIwW9P5XXDxRv4oL+efDgR26zysR4PNfO2neUbnC4ja20PN//ugQ2OspgGH0IeEnU8dduRqmpfa9TIif9XNMY9HwdZxci2bGlla0TX0YPxY/ZZRU59TqLmXOL1/0yD/Hk4/4xG9pQINZm7BXYEwqbtbMmRo7z6T+vqO08mvA5H1AW0MW0st2T//i1ecP5/2ervF6rZWsfQp9zOd2n92UlMHsv27O20e1dM5xNfDvtRZYqH20tLiFYqBWfUDIrPff/HBYPDIhu4+l4rnAnENYOUMTXy73/zOq26dWlbpajfqe/+JXA/e5Btq18PJ1jJptFfDkMn9Gn8Lu4IUlvoQebFEU2VjQUmgurvPpg7VE9lQlYlfnriF73S2Wxo0tfNMNetyN+Vxo46zI++oWQdf9/p/jezp/BPEsjaJpQeRl1jIqmxcIDJbILJ/6onsHyA+vsxRo0eWe+HL7s0bOtZOVJkJnoqrVq8LLsF5NAQC7+/4Nv4GryoUG38iL7ERVuH4eo/MH4hsyP7o+/3gRmM8O4hrRRVZ3n0b1dy7fnaPgdWrV1PdkZr9x+P/MWrN9Z36Lw+lrx5dUU54u339vf5NFw7r4bRef5eEJHITeUkCs3onyckrqPHH2VQkMoiRpbymJzLFp9jA9jFYbdvH67cfuvX88hzWYlPq8/RFD6Q5ZPt3b7B13Msuy6D+nSz1IIm8lLpMFCiXnsiGrwq/MwNKZ3dTuHeQs3x4k7eHv9pyvQKhfE6kjMycOi0+OJqmcEyrQJrDrbG9G60c7eX8P9YBeL52IvLii1gl7fdcD14Y9+hCL2hiqCVv+BN7Ida6GvgN67Q585pbwIcMp5Z0qPCo+wNGLrmwW9JJhU2Wufv9dq907+B8TFh3aXrl5uVbvvL5sVOXHuV3lGZGQbMUDPR02Lt2WgeMhyriIfJiZIa8ghyreQe9H+YX5VhzGDIz8KUDLW2tHFSbx+P+8ZH7Cq/nbzDD40MBHV5s18pBkRe3YtWIsV9F7tJXjuCwdGRrUrRkbNu3R3s3XCObBGUmVnzsQilAGZMjOiV8OEfiwqFqnUrcMcnYmEr+PeTurFCyfCVkq/3yoouREAgfoDR5H6Rl278aeOyUCohLB12vtnZ/KglDIi9G1ohOOYCn/zk/Z5J2qjoBcWxvlx84Kyt/Q2t4g7dt8dqLiimdc/l6aoc2AcdTYavYQX54jEvg4Vrroqu9taJyz4i8jNvNaAvcMkYnh/OKBSRn3mx940FkH6ODK7QBLOSEXm3sDihUvPLEqrkoInXeqC+O7ZazfA5UirD44+CtUeANnlcRdlX6utvvUZq8RF4MLHL1foQfbBn5Hq+pdjppx9sMppdtiLdeclkl2+TCJraALdqAZjMj0oFARmCgXNgwwnqBt9Wx72dHo8ZtjMWsc1XFm/u4198rTGvxehF5McD2Umr4cCHDnLsbNjw7L8NWSF8l9PlHZ4fNmFWtBFl4ymABBLKx0buHcyMvJvVCb4hnf17N4++mNwWPbw94W2dhm9ieV2cFNAYbZ3RvYRuhAFFKiWB25AVkUZelEWDLWB22jIIuPgVvzepc0p43Wcoj5ViQTV0Ix0E2SDknw7l0pwUGLr0cDt7Q+fNXkrtBrhWz+y6zn+TVhDG7w1GfDV3mnb4FHp8fTKfGz1uhl1u9/VJmznO1sRrB5Krbc+2iksP9FxzySdhyKXBjek6qs+CBSnS88fBUv+x84YR4InHrZBZy4BiRiTsmh8euno0xOFZjGhtnXC+XH421UfjvLTFo3u/b6BOQJJrZe9bhs/BmciCUpKnH9zJbPWF1AcL6ucn0I9kw5kmoDPEvhetvTLxCn/b1mZSwMTYR39+L6i7zFUbM9odvr/9g17Wvv4E5dDpXt7DK6dNswrc+zSZ+YVnNKkfo3ECEGyDtwZQFWjSjx9bOjWzbCg7gAmlN2he7bM7D7ERX1KONvfeeMR2D/U3Riw8ePgtOno+Kz8S3ZlpZT3mgy9N42Ei32pv7dKz/F/xbkWeb+kerV6+a+ygjx/5aXIZH1pOC2h/9nrCED14qa1twZuGLTfEFjdLk1spiqxTXbVcW/Hj8zpZ3ymtUp4ZjwmC3WQGezgM28jUOejhBh33ug+dl0r2BvZq8tRQy7qfznR9IawKQ1lwgraZl+0pJYCv2xc8I3HL9W5DBrDx5PeZ4+FuzesOh6ysR819U5P0AmgUdFxaQS83VZ6f8VRFxYZuM3JRGG6MCNvw38o0TkLrgy4VAMMiO27OvIgbEm0pcON/5pLDhfLZ6QFoTF0b0j916KXB1ecSFY8Ib0AHrLszYjhhw0cmUNlDOF6oJWJjThR8l4dLyZ6jI151N1VNT1ldFfTXreWFMa825qeGJGVd4fWt4OPbdPsgtYGZ9a5fbZUF7AB7OwdurPz+VsGMsBttZGgS2sY/bOvTa19yu2yE32PY1qN38StnxgbTG6z2tZlznBg8sTL+FfMK1j5B2k1dFbwiNTB6lZS9ECC5q77N5ekc/KNusuDQJxFWT5JWQfqXLuoszdoNX0kDI4gEiyX2p6VvBfZpO+NLass4jTCaNiN/wUVTK/kFCxhPSB7ezbRy8wpvbdT+IdgLSmg36CLoZGghsLxDYUIiBiUZgcFj7VTis/TvIKmnulBBsqQ83BMCbzr3x/Ut1lPimUZPkBR6X4zfHXrsB27k63ExUcSsgkAdAXg8gG76VqWPJ3V9sAsNyOY3fPfQA9DQp/ic3TjT/MwSg/M3tMwu9OHv5UmOnyf06C+JCQ0A8rL4WiAt1gRhYf4iBhUIMrIYYiyzk78Qp5HWJgax8Y8bfz3HdAwUo5ZOg8pk1R15QZiYF4lZYRpeeMgjgMSaoN8b8DkfwuiyXhN2eC9OJQoxkSNkQqBq07cbXaF/ZJKhkYs2RF+rat/kU/CDRUwYBiOVlOdZqfpk1MOB1vQO1veqxHpfGkx+BmKRsN7DvVPkleV4CTZIXJnyC94XBY3pKIPCi64jVrAsgwrdydfC6sNSMJtcSLaAqVcG+s8HOTN+us8BVswsOvK85LADSyhjgdWXC29N/s9YnPPrBP1RSUZW16mYzHtjXSYnel2bJC7yvcxT7evb50ntdSaw/cYt2xX5BXhdrVJU3HnhfH+AbZSVJplny0se+FFM5U06jg9f1RAyvC99EwZlGJV8aISfsmpobvC/XoG03v1KSUpomL/S+urkMWackwOWQBbyulaxjXaiH3uvSZKKzHHZS+JwWPx1KmJqcnuOoFDk1TV4Isl/LmQGYMa8UwKWWQ1c9Q4xYF2TUk9cltTXlnQ8vHF66J+4zeaV4NrvmyQs9DvA8lisFcKnlAN1XiOF1rT2UiFU6NL9+pLaX0ucD72sieF9OSpDTLBYfeB4LwQMxXFWuBNwlkQF0zkfdWU8WFZfRcfe5VH/W49J4ykcAvK/agZt15Y9kf8yCvBBlqAJhdrEZ9DjB62L+hnHx77fwRYjZ4Sn7p1UZAlSF6iGj4QtM9ivbzIK8oCLEh8qwu3RSoKeJVTFYz4iLFryuIazHpfFUhUBV+ALDFBlZH82TFx5EhjLNY2RFWYbJ0dPML8xlXohwRfidj0Ad3eUV9JgvAvAFNgjDB3IiwPeuQTllFTR3dEr4cKgOweSyDa4CNKnb8bxl1ZpZ8OfxahaW+KazKCXrVtu49PNeUJNLsmDnqcTtk2DuQK5yG2uHgdounx0bbawd/d4sELBcEHpzEWiKtyLJ8mievE4k/DpNCmTrWbvc6+o8ZHU3l6Ery6vCapABqrE2iXt03uv03R0TocpDPzFlA90nsiQvfE0OAVtFZVmLiR+NXTkCcDSsPyQqDxng6bhDDqw0HXSFiqqdg0++fkZMYK2r18n1bztnvJALPODOxtG7YhYvBc/QXiwZJ3j+OKCtg7fJV1fpva54Ii+xLKXOcT1ca50/MKeHpxzSazrmdTppZ7k3BrECGraFp2e88GsbIcSFMkC/TR/33NECbg8S7eqskwlb32OhL3hdgURcLJDU1hh45R14X4IuXTYVCU2S1+20Cz3xPsUjcT+LRl5IOO90WeMNW8RbphgBykynw7VnM/o1n8r8zSDKdSX1SH8ojW1SnA2L0W2LvPeGKXpSX80iYAHHxObLoZ2myAu2YSPxCrMfTr1x1MSLYCu1BVarQMJheanrqy2nBb7YeMQK1osA3jpWh6vV3jRlXCiHMp3K3piCoKb7WoD35b4p4u5bUmup+pgXeBUNgKgmQi7XVIgdNRYbQLiUIxW2eq3wViEx5tpwMWDL+Xt7Xmc9dst6PQ51dOq/FbaqP/ORHb0ueMOYDORlx1omGk8TCBSAFtWcbC0fRv+nV30pNVIted17HNvm77jVn5y7GzYSvAsbqUCDraJvy/rdD4g1H5LxV0f8EkEnsbziAvAcd7Vz9Nnp2cBvozHvEW7DDoDbsL8WS18aV/UIIHkVLBnbdvJo74ZrpdRGdeSFb+ggBeCdGw9P9pYSKJwLtnVrhrWdg+kHoj47YxYFQ7xuuqiTwOB40a27k2+Yu6PPdvDINpQ3X5fPjqbBLTJ1xZaFxlctAtlAXNOAuEKk1kBV5AXxrINw+43kpGUwCnhdfcHrChfbSHrvKx68L8lubYGUj4dAZLsHt/5kKmwrMww6wmWyg8csvxgKbxopq15sw3MfH4sMKOGzmwPENUUO4kKoxNqacDcDj5YZuanNeDRn2hRjXVIQFwqNJWy6NRoiqQsOd13Wg9ihP/xZysuCq953rZvaYQjcnpzDFFDTBis0rbs6e0NO1QUgi7dXvN3+zV5t7A7KrMUTOYlLdeSFOx25DObu5CPpXZCuth2PyqBrubFDILA/gMD8FUBghXCL861RXs7bQJY8GfCRfErQMwv0/Tns0y5ekAzaCbyc1cN6NNgY+lFnH/i3FwZ6OmyXXCgo0gLE9a5cHpdBX9nIQCDgkm2jysrX3sH31ypVpLuQyMmmebRAjEztVm7dMyCwPbCF9Ict5K+whZTsBYlBGXiblRzo3zIQPjCr8MjEo6y8OqEnk99aFR4/E+4WbKHfRShhK2Uq/ti/CEg6cWzvRj+Me9llWV0by0dLyxm1a4u6J+Gf/ePvZzcN3hv3yS8Rd8fobSMmDrhVnAp2+ImFoqaMoTbykm2ba1m1RrYpQPPtC2clb/Htw6A9bscqLNqIBAbZ1P8asyxKsm97IK270/2aLh7X2+UHK8tqT8t5wwca43LL8OfI1Yc+66CyK9SZGq5iEtPh7ute/693+jb+DrAOOwNlJGdwMKqrvfVtaDYNjnDNCTmY+C4Q+vS0rAIxjpzl6YPzshMXwqI28hLzG8XYMpF0boh7Jc876JUNMShrY4Ix/L1RHfEQLiQkTpy+9soqPVEwnP7ZUEBaKUBa/9aTVl5lRyV6tamHqSsH8PzlpqNJE9f+nTAJ3pA2UQuR2dlUSx/7cqPlY3u7LAMiitssEFEnW6v70HU+5OZ9hfcsrtgf/6EeB4EjluqmGI/LIJXayIuFEQSNUc+60U1BHU3olFfAvh6XEXE4vcWCLcMaILAqYhAYfJAfvufXdNGUvo2/RU+Lz/ku+PAmg35Y9nrhtpP3Rm8+ljQOKh/46klMNq+9AsyLIAB/brKv63+H9XBaj7qyql2k91CDYd5gsNPYleHxH5p4WYohxqUIj0ut5GXUMzCBKyrtCkUNpfSAquB5xKDDPrLpawzHEgS2EtqanEaB3sckX9fgd/o1/gZjPFy2S5XJCEHtTfD7TRgPWgteyNpDCW/CVqqRMb0k/H3+f95oMw3iVsfFnFOfOLoWt9ZLw+ICgMxf5ekx5+pjXGvElFPI2OR5cUQtLv1CL2h6hWNzk5slZlztavIg/AfgdUkJCwJDTwtIaymQ1rdIWgH8Za60hz4e9Clspeb6LoiMhOC+rNU/DcJCQD5JbOIqCYxhaw3VTz2gGu6HvxxNGmuExHAtYOY8BucVR1yom9JcacZLl91wsWmR+I0l2XMpNXykZJM9mwg9PV5rAhc2Hg2BfrxSFyAFIB+2ht9HzH+hXcBrzechcYmpL26lRng1xFMEvAhaJJkKh3VvsFGksSsd1qNJnail49pNOLPwxWaIP9ihvBdR+OIGY1x45EeRxKVG8noih8FxzhsPI1+Scu7o5AOvSTmffi5MROVFXthPT2AYnjJ6uS/misGHZsmZhT0bLRjZ+gOIU92TSs/RXs74kkEJW/GqAzwdQqXSu7x5wCONR/yjF3s7BQ5r8Qm8IImDdvn6tvhWEfO4FBXjKquHEgzJ24Y3HkS+fD457G34gPtDJYnavAcQ2OGjF3e2a1C7uehbx6jk8GHrLsz4TaCYvLvB0aCMTs4DtnVy8ltnyikCCA6PgyA+XvBb7sUfY/u4rAoY1GyOlIRVFgz/b86GH7ma5sMbJIYdMIfrzEIvJcXfqsC2uvq2k8n/Wvx77KJZg5oHAHGtY6iyKEOpkrxKIgFE1huIbIyeyOqJgpJ+0Db23gcmdv4R316J9sCLAasfTr15NjHjSjvRJoGB4VB2FTjLuA0OZf+KFV1ZzYVvt4DAsC6ZFfzojvFAhviGgMHNAjENgNU8QsfREyxuheRa+0Uz/Jp8FTis5edCdaB+xQjIZUBR8NcT2Xg9kdmKMcmYjsHDPJx8RXP5w2NXB4bd+H6BGLLjmFDX62iXhq+t8XD0/ZVPXS8+8gBBjJ+79dpKyF36bjK8PZTT0yorN3gY1VrOPJwBmeiSvj0uKQcc6+kBwfpIPphS2+cR0BR5lVQPiMzneMLW96Gwnz9Lw8MB7Xufeu9paqwOlpA5r6RGDFh3fsZuqCYhpHuFfZxqtbj+gsvrP3Zy9tsgxg3aTIWVYLDJq6I3QjY+FnyU/G07bBnjYcuICbT0mIgA7+CsifNJ1h0LBo5ov2A0kM0DlpNCjK3BlktzfsbtHctx8aajTVGzfmNNXFAbPwgqv7Z+qemb3xBxFVtsVE9nrNghOXHh3PCWsdy6aSzXkrmMpVnyQgOidwTexi+sjYllmiGgvjM7r3T5GKHzQIB+6MozE46KcRSoZb3u+4XKpdV+cG5wLx70lkM/eMu4XY55tTinpskLDdbL9U281Zf5AxfGvrrizIQDkAkv+DZuJL8914O/BiIMBeIq9w2dKYJDUD4Hrmc7ZsoYWu0LHtB60E3SumCwZbwDsa4TWsVUar00T154ezXUbP9DDGDhjWDn4BMjoiDIPoePF4aVUv+8sSzoq4j+iQdu/Y91UvlTVZvadTohRmxODCylHnNkT2epky8LfTvY/y61nlqeT7MB+5JGg22ZP3g328Q0JHg5BVj9tE/TifORMA1zAanZAsl1Tc6M9YBKsC6XUg+8Bv/dXkxZDGP7tZw5x7f5xCAp5lLjHN5zj1+G40JtJZK9MPQjz75wTOegRPNpfhqzIC+04oJDvskQbHeUyKJFLnXaXqlTwz65jpVDCpRXxjpTkj8zemzt3Mi27TnJJ1bJhMFhtwOCtt1Eche9yCXE2JLgarCGKoFGFWJqfttosIK36xv/ldAiFphkCnGx3nIRF2TNpxNxVW5xOC60WqI1UTSgi6NouYES6aC4acyGvO6kX+ypOPRFFMixVvMYEYfXxNBYvA8usjgMyoh9WNtiaFenrZoATUFKmAV5YQ5VVMp+PwXhLroocEVcN9Rb9IlUPsGIF51/FlsF2DICSeqqvdLDEAGzIK/9sT/OZ4iZaoYCvb9QjbAyCVpcxVTUa91wy7hFJvU0Pa3myetBdmJT8LoGadqKFSgHeg++nXbhRXPUnavOUOcrf6CnI76JxmvrxXiKYMtI5CUCsponryPx62eJgJtqhgy9ukDKFxWqwaWkoHBcCLeOJpeyLk95zOSn9AhxloWmyQuz34/Hb8Eqn2b7YI4Z1gczWwA4KI7XjOFtRRya8m2CW8btfDtRe24IaJq8Dt5eMwcOOouew8MNavla7YtdzupiGvmUEHlmkcoyFwzs6LBDZNHNdnjNkhdWfTifFCZHHXjFLSY8xkTeV+VmgeNCmPPFOmXCooZlVUkvK1bc4hNRIM2S1/E7W9+HjHoxbg0W0RziDQ3e12zxRlf/yHAxxUU3Z+uroImhjrtQpQwEiKQl1ksAobJpqp8myQu9LtgyfqopS5moDHhfnuR9VQ4i3C4UAi2wzpcx0kGCwh+sSmH4wT74Y6hUgePUMNFs1L0SBGQpyCa2ReBIzmTyup5DuerB26s/gX8V9YC62LYVc3w4LvRjTm4hFpnEN4/4YyApnLbkOeCSfzd4WoY/S14fl9/UoeZ1MWU257E1SV4XkveOMGejVqQ7VLWgbXQlCwOOC+HdkUwTmkWrd0QLnP8dfWrAbFDrWdPxYLIaZJVQxtx+zadReRwJAaepxEVAkzEvqKZwdnKXNS8DgZl0SS1eDwY18NPENUHlo9ezdmFxKWvh6+2DJnV3GRIipy40NyHAEgFN1/PCg8lQG/4ElFjmleuFpPWi64gf+jSdsAAurbh3LmnP6NN3d7yDJW5Ygl/RWDg/FDZc4934zcV4yS3o4QkvIAKhdv4/hcwPxDUOiAsvnaCHENAMApomL7SSnsBOAoEZje/pSWuZnrSSyloZz0nCcaOA04nb34bxmL9JQi+rV+O3FndzGfK/8u5UxPkh6D73VMKOCVxvGSLi0sxnlRQpg4DmyasEgR2viHCAtIr0nlYQelrGVgmmYpy7FzZ6X+yyrx9mJzoZa2/s91B1NQZKNs9s6+C9x1hb/D3WwD9+Z8t7EfHrPwSdbCrqA8Q1nraKXBClNmpEwCzIS09gnrCFPFbylh49af0XPK0vuZBWWQOzut16guePA7kSV0kZkEQhLWTiwbjVgUCipUoMk8elxo8jycwHAbMhrxIEFpFXkFsTPK2lQFoLhZCWAWD0gIIO+zy3veRjAHipkBH40gFHU2/5gbjcKIyLQTKqO3lcfCxAbdWKgFmRlxhGWn12yl68w1Ho2BDfWjeifdBYof3Li8uVvL2I1bg0DiGgNAQ0mSohJcgdGwzYZMp8HZ1M6192biIuU6xBfdWEAJGXidbybOC3CWJngioH4JaxZb1uVNvcRBtQd/NEgMjLRLtjrMrdyXe7kGGg3w5TY11C5qU+hIAWECDyYmDFrg2FZa7DlnEDg+lpCELALBEg8mJgdkhz+BOOESXyGQq2jGm0ZeSDGLUlBEojQOTFaEV0cvbjdakobjVpy8gIfBrGLBEg8mJk9k5Ofhv5DAVbRl7t+YxNbQkBc0CAyIuRlZvadTzpVKsFlhE2+ujfMh402pAaEAKEQIUIEHkxXBxdnF+r7Op4rLSZg9PVtKyTAFvGPIZT01CEACFACBAChAAhQAgQAoQAIUAIEAKEACFACBAChAAhQAgQAipH4P8BrUqXzb1XyhkAAAAASUVORK5CYII=;" vertex="1" parent="1">
                    <mxGeometry x="70" y="223" width="75.43" height="78.42" as="geometry"/>
                </mxCell>
                <mxCell id="4" value="Service A" style="sketch=0;aspect=fixed;html=1;points=[];align=center;image;fontSize=12;image=img/lib/mscae/Functions.svg;" vertex="1" parent="1">
                    <mxGeometry x="320" y="80" width="50" height="46" as="geometry"/>
                </mxCell>
                <mxCell id="5" value="Service B" style="sketch=0;aspect=fixed;html=1;points=[];align=center;image;fontSize=12;image=img/lib/mscae/Functions.svg;" vertex="1" parent="1">
                    <mxGeometry x="320" y="177" width="50" height="46" as="geometry"/>
                </mxCell>
                <mxCell id="6" value="Service C" style="aspect=fixed;html=1;points=[];align=center;image;fontSize=12;image=img/lib/azure2/app_services/App_Services.svg;" vertex="1" parent="1">
                    <mxGeometry x="320" y="269" width="54" height="54" as="geometry"/>
                </mxCell>
                <mxCell id="7" value="VM" style="sketch=0;aspect=fixed;html=1;points=[];align=center;image;fontSize=12;image=img/lib/mscae/Virtual_Machine.svg;" vertex="1" parent="1">
                    <mxGeometry x="320" y="370" width="50" height="46" as="geometry"/>
                </mxCell>
            </root>
        </mxGraphModel>
    </diagram>
</mxfile>